<?xml version="1.0" encoding="UTF-8" standalone="no"?>
<svg
   width="128"
   height="128"
   id="svg2"
   version="1.1"
   inkscape:version="1.2.2 (732a01da63, 2022-12-09)"
   viewBox="0 0 128 128"
   sodipodi:docname="icon.svg"
   xmlns:inkscape="http://www.inkscape.org/namespaces/inkscape"
   xmlns:sodipodi="http://sodipodi.sourceforge.net/DTD/sodipodi-0.dtd"
   xmlns:xlink="http://www.w3.org/1999/xlink"
   xmlns="http://www.w3.org/2000/svg"
   xmlns:svg="http://www.w3.org/2000/svg"
   xmlns:rdf="http://www.w3.org/1999/02/22-rdf-syntax-ns#"
   xmlns:cc="http://creativecommons.org/ns#"
   xmlns:dc="http://purl.org/dc/elements/1.1/">
  <title
     id="title3729">My YouTube Channel logotype</title>
  <defs
     id="defs4" />
  <sodipodi:namedview
     id="base"
     pagecolor="#ffffff"
     bordercolor="#666666"
     borderopacity="1.0"
     inkscape:pageopacity="0.0"
     inkscape:pageshadow="2"
     inkscape:zoom="4.3106"
     inkscape:cx="106.59769"
     inkscape:cy="54.516773"
     inkscape:document-units="px"
     inkscape:current-layer="layer1"
     showgrid="false"
     inkscape:window-width="2560"
     inkscape:window-height="1377"
     inkscape:window-x="-8"
     inkscape:window-y="-8"
     inkscape:window-maximized="1"
     showguides="true"
     inkscape:guide-bbox="true"
     inkscape:snap-bbox="true"
     inkscape:bbox-paths="true"
     inkscape:bbox-nodes="true"
     inkscape:snap-bbox-edge-midpoints="true"
     inkscape:snap-intersection-paths="true"
     inkscape:object-paths="true"
     inkscape:document-rotation="0"
     inkscape:showpageshadow="2"
     inkscape:pagecheckerboard="0"
     inkscape:deskcolor="#d1d1d1">
    <sodipodi:guide
       orientation="1,0"
       position="123,0"
       id="guide3361"
       inkscape:label=""
       inkscape:color="rgb(0,0,255)"
       inkscape:locked="false" />
    <sodipodi:guide
       orientation="0,1"
       position="0,5"
       id="guide3363"
       inkscape:label=""
       inkscape:color="rgb(0,0,255)"
       inkscape:locked="false" />
    <sodipodi:guide
       orientation="1,0"
       position="5,5"
       id="guide3377"
       inkscape:label=""
       inkscape:color="rgb(0,0,255)"
       inkscape:locked="false" />
    <sodipodi:guide
       orientation="0,1"
       position="5,123"
       id="guide3379"
       inkscape:label=""
       inkscape:color="rgb(0,0,255)"
       inkscape:locked="false" />
    <sodipodi:guide
       orientation="0,1"
       position="0,85"
       id="guide3727"
       inkscape:label=""
       inkscape:color="rgb(0,0,255)"
       inkscape:locked="false" />
  </sodipodi:namedview>
  <metadata
     id="metadata7">
    <rdf:RDF>
      <cc:Work
         rdf:about="">
        <dc:format>image/svg+xml</dc:format>
        <dc:type
           rdf:resource="http://purl.org/dc/dcmitype/StillImage" />
        <dc:title>My YouTube Channel logotype</dc:title>
        <cc:license
           rdf:resource="http://creativecommons.org/licenses/by-nc-nd/4.0/" />
        <dc:date>2021/02/27</dc:date>
        <dc:creator>
          <cc:Agent>
            <dc:title>Aleksandar Urošević</dc:title>
          </cc:Agent>
        </dc:creator>
        <dc:description>Logotype for WordPress plugin My YouTube Channel</dc:description>
        <dc:contributor>
          <cc:Agent>
            <dc:title>TechWebUX doo Kragujevac</dc:title>
          </cc:Agent>
        </dc:contributor>
      </cc:Work>
      <cc:License
         rdf:about="http://creativecommons.org/licenses/by-nc-nd/4.0/">
        <cc:permits
           rdf:resource="http://creativecommons.org/ns#Reproduction" />
        <cc:permits
           rdf:resource="http://creativecommons.org/ns#Distribution" />
        <cc:requires
           rdf:resource="http://creativecommons.org/ns#Notice" />
        <cc:requires
           rdf:resource="http://creativecommons.org/ns#Attribution" />
        <cc:prohibits
           rdf:resource="http://creativecommons.org/ns#CommercialUse" />
      </cc:License>
    </rdf:RDF>
  </metadata>
  <g
     inkscape:label="Layer 1"
     inkscape:groupmode="layer"
     id="layer1"
     transform="translate(0,-924.3622)">
    <g
       id="g4431"
       style="fill:#0f4c81;fill-opacity:1">
      <path
         d="M 29.099544,1037.5354 30.491138,1033.4177 H 32.525005 L 30.048682,1039.6692 V 1043.8511 H 28.136133 V 1039.7477 L 25.666947,1033.4177 H 27.715087 Z"
         style="font-size:14.6153px;line-height:1;font-family:'Open Sans Condensed';-inkscape-font-specification:'Open Sans Condensed, ';fill:#0f4c81;fill-opacity:1"
         id="path4366" />
      <path
         d="M 38.812155,1039.8618 Q 38.812155,1041.8172 37.984335,1042.9091 37.156515,1043.9938 35.714967,1043.9938 34.801511,1043.9938 34.102146,1043.4943 33.402781,1042.9947 33.024553,1042.0598 32.646325,1041.1178 32.646325,1039.8618 32.646325,1037.9279 33.467008,1036.8432 34.287692,1035.7513 35.743513,1035.7513 37.149379,1035.7513 37.977199,1036.8646 38.812155,1037.9707 38.812155,1039.8618 Z M 34.58742,1039.8618 Q 34.58742,1041.1036 34.858602,1041.7387 35.129784,1042.3738 35.72924,1042.3738 36.87106,1042.3738 36.87106,1039.8618 36.87106,1038.613 36.592742,1037.9992 36.321559,1037.3784 35.72924,1037.3784 35.129784,1037.3784 34.858602,1037.9992 34.58742,1038.613 34.58742,1039.8618 Z"
         style="font-size:14.6153px;line-height:1;font-family:'Open Sans Condensed';-inkscape-font-specification:'Open Sans Condensed, ';fill:#0f4c81;fill-opacity:1"
         id="path4368" />
      <path
         d="M 44.442754,1043.8511 44.207254,1042.8306 H 44.107345 Q 43.843299,1043.3729 43.350889,1043.6869 42.865615,1043.9938 42.237614,1043.9938 41.167157,1043.9938 40.617656,1043.2659 40.068155,1042.538 40.068155,1041.0893 V 1035.9012 H 41.987841 V 1040.6326 Q 41.987841,1041.5032 42.194796,1041.9457 42.401751,1042.3881 42.865615,1042.3881 43.479343,1042.3881 43.757662,1041.7744 44.043117,1041.1607 44.043117,1039.712 V 1035.9012 H 45.962803 V 1043.8511 Z"
         style="font-size:14.6153px;line-height:1;font-family:'Open Sans Condensed';-inkscape-font-specification:'Open Sans Condensed, ';fill:#0f4c81;fill-opacity:1"
         id="path4370" />
      <path
         d="M 50.872633,1043.8511 H 48.938675 V 1035.1233 H 46.940489 V 1033.4177 H 52.870819 V 1035.1233 H 50.872633 Z"
         style="font-size:14.6153px;line-height:1;font-family:'Open Sans Condensed';-inkscape-font-specification:'Open Sans Condensed, ';fill:#0f4c81;fill-opacity:1"
         id="path4372" />
      <path
         d="M 57.873418,1043.8511 57.637918,1042.8306 H 57.538009 Q 57.273963,1043.3729 56.781553,1043.6869 56.296279,1043.9938 55.668278,1043.9938 54.597821,1043.9938 54.04832,1043.2659 53.498819,1042.538 53.498819,1041.0893 V 1035.9012 H 55.418505 V 1040.6326 Q 55.418505,1041.5032 55.62546,1041.9457 55.832415,1042.3881 56.296279,1042.3881 56.910008,1042.3881 57.188326,1041.7744 57.473781,1041.1607 57.473781,1039.712 V 1035.9012 H 59.393467 V 1043.8511 Z"
         style="font-size:14.6153px;line-height:1;font-family:'Open Sans Condensed';-inkscape-font-specification:'Open Sans Condensed, ';fill:#0f4c81;fill-opacity:1"
         id="path4374" />
      <path
         d="M 64.574476,1035.7513 Q 65.659205,1035.7513 66.28007,1036.8289 66.900934,1037.9065 66.900934,1039.8618 66.900934,1041.8386 66.272933,1042.9162 65.652068,1043.9938 64.54593,1043.9938 64.010702,1043.9938 63.596792,1043.7654 63.190018,1043.5299 62.826063,1042.9448 H 62.704745 L 62.383608,1043.8511 H 60.984878 V 1032.7469 H 62.883154 V 1035.3445 Q 62.883154,1035.5086 62.876018,1035.6871 62.868881,1035.8655 62.783245,1036.9359 H 62.883154 Q 63.232837,1036.2794 63.63961,1036.0153 64.046384,1035.7513 64.574476,1035.7513 Z M 63.917929,1037.3641 Q 63.375564,1037.3641 63.132927,1037.8708 62.897427,1038.3775 62.883154,1039.6549 V 1039.8476 Q 62.883154,1041.232 63.125791,1041.7958 63.375564,1042.3596 63.932202,1042.3596 64.95984,1042.3596 64.95984,1039.8333 64.95984,1037.3641 63.917929,1037.3641 Z"
         style="font-size:14.6153px;line-height:1;font-family:'Open Sans Condensed';-inkscape-font-specification:'Open Sans Condensed, ';fill:#0f4c81;fill-opacity:1"
         id="path4376" />
      <path
         d="M 71.168486,1043.9938 Q 69.676983,1043.9938 68.813481,1042.9376 67.957116,1041.8743 67.957116,1039.9332 67.957116,1037.9636 68.734981,1036.8574 69.512846,1035.7513 70.90444,1035.7513 72.20326,1035.7513 72.95258,1036.7004 73.7019,1037.6424 73.7019,1039.348 V 1040.3614 H 69.883938 Q 69.905347,1041.4247 70.319257,1041.9457 70.733167,1042.4595 71.461077,1042.4595 72.388806,1042.4595 73.359354,1041.8814 V 1043.4443 Q 72.445897,1043.9938 71.168486,1043.9938 Z M 70.890167,1037.2142 Q 70.483394,1037.2142 70.219348,1037.6496 69.955302,1038.0777 69.912483,1038.9841 H 71.839305 Q 71.825032,1038.1134 71.575259,1037.6638 71.325486,1037.2142 70.890167,1037.2142 Z"
         style="font-size:14.6153px;line-height:1;font-family:'Open Sans Condensed';-inkscape-font-specification:'Open Sans Condensed, ';fill:#0f4c81;fill-opacity:1"
         id="path4378" />
    </g>
    <g
       id="g4444"
       style="fill:#19aeff;fill-opacity:1">
      <g
         id="g4413"
         style="fill:#19aeff;fill-opacity:1">
        <path
           d="M 8.7251887,1043.8511 6.7412759,1034.9663 H 6.6627757 Q 6.7983669,1035.9939 6.7983669,1036.8503 V 1043.8511 H 4.9999999 V 1033.4177 H 7.9830055 L 9.7670997,1041.6174 H 9.8241907 L 11.594012,1033.4177 H 14.619836 V 1043.8511 H 12.778651 V 1036.7789 Q 12.778651,1035.9012 12.87856,1034.9806 H 12.821469 L 10.844693,1043.8511 Z"
           style="font-size:14.6153px;line-height:1;font-family:'Open Sans Condensed';-inkscape-font-specification:'Open Sans Condensed, ';fill:#19aeff;fill-opacity:1"
           id="path4362" />
        <path
           d="M 15.540429,1035.9012 H 17.510069 L 18.609071,1040.3899 Q 18.773207,1040.9894 18.873117,1042.067 H 18.915935 Q 18.923071,1041.8957 18.980162,1041.4604 19.037253,1041.0179 19.072935,1040.7682 19.108617,1040.5184 20.057755,1035.9012 H 22.055941 L 19.779437,1044.422 Q 19.365527,1045.992 18.680435,1046.6771 17.995342,1047.3622 16.853522,1047.3622 16.289748,1047.3622 15.847293,1047.2409 V 1045.6494 Q 16.139884,1045.7351 16.50384,1045.7351 17.460114,1045.7351 17.759842,1044.4791 L 17.895433,1043.9795 Z"
           style="font-size:14.6153px;line-height:1;font-family:'Open Sans Condensed';-inkscape-font-specification:'Open Sans Condensed, ';fill:#19aeff;fill-opacity:1"
           id="path4364" />
      </g>
      <g
         id="g4422"
         style="fill:#19aeff;fill-opacity:1">
        <path
           d="M 82.144233,1034.9663 Q 81.309277,1034.9663 80.824003,1035.944 80.345866,1036.9217 80.345866,1038.6629 80.345866,1042.2882 82.237006,1042.2882 83.064826,1042.2882 83.971145,1041.7601 V 1043.4871 Q 83.207553,1043.9938 82.015778,1043.9938 80.253093,1043.9938 79.303955,1042.5951 78.361953,1041.1892 78.361953,1038.6487 78.361953,1036.1081 79.3325,1034.688 80.310184,1033.2678 82.044324,1033.2678 82.615234,1033.2678 83.136189,1033.4248 83.664281,1033.5818 84.263737,1033.9743 L 83.621463,1035.5515 Q 83.300326,1035.3302 82.936371,1035.1518 82.572416,1034.9663 82.144233,1034.9663 Z"
           style="font-size:14.6153px;line-height:1;font-family:'Open Sans Condensed';-inkscape-font-specification:'Open Sans Condensed, ';fill:#19aeff;fill-opacity:1"
           id="path4380" />
        <path
           d="M 89.294887,1043.8511 V 1039.1125 Q 89.294887,1037.3641 88.417112,1037.3641 87.760566,1037.3641 87.49652,1038.0563 87.232474,1038.7414 87.232474,1040.0331 V 1043.8511 H 85.334197 V 1032.7469 H 87.232474 V 1035.2161 Q 87.232474,1035.6942 87.146837,1036.9217 H 87.246746 Q 87.817657,1035.7513 89.002295,1035.7513 90.094161,1035.7513 90.650798,1036.4935 91.207436,1037.2285 91.207436,1038.6629 V 1043.8511 Z"
           style="font-size:14.6153px;line-height:1;font-family:'Open Sans Condensed';-inkscape-font-specification:'Open Sans Condensed, ';fill:#19aeff;fill-opacity:1"
           id="path4382" />
        <path
           d="M 96.638214,1043.8511 96.259986,1042.7663 H 96.217168 Q 95.796121,1043.4657 95.34653,1043.7298 94.896938,1043.9938 94.211846,1043.9938 93.334071,1043.9938 92.827388,1043.3373 92.327842,1042.6807 92.327842,1041.5103 92.327842,1040.2543 93.012934,1039.6477 93.705163,1039.034 95.075347,1038.9698 L 96.131531,1038.927 V 1038.3561 Q 96.131531,1037.2428 95.16812,1037.2428 94.454482,1037.2428 93.526753,1037.7994 L 92.870207,1036.4863 Q 94.054845,1035.737 95.446439,1035.737 96.709578,1035.737 97.366124,1036.4649 98.029807,1037.1857 98.029807,1038.5131 V 1043.8511 Z M 94.989711,1042.5094 Q 95.510666,1042.5094 95.81753,1042.0456 96.131531,1041.5746 96.131531,1040.7967 V 1040.1259 L 95.546348,1040.1544 Q 94.896938,1040.1901 94.590074,1040.5255 94.290346,1040.8609 94.290346,1041.5246 94.290346,1042.5094 94.989711,1042.5094 Z"
           style="font-size:14.6153px;line-height:1;font-family:'Open Sans Condensed';-inkscape-font-specification:'Open Sans Condensed, ';fill:#19aeff;fill-opacity:1"
           id="path4384" />
        <path
           d="M 103.52482,1043.8511 V 1039.1125 Q 103.52482,1038.249 103.31787,1037.8066 103.11091,1037.3641 102.64705,1037.3641 102.03332,1037.3641 101.74786,1037.9778 101.46241,1038.5844 101.46241,1040.0331 V 1043.8511 H 99.564132 V 1035.9012 H 101.06991 L 101.29827,1036.9217 H 101.41959 Q 101.6765,1036.3722 102.15464,1036.0653 102.63277,1035.7513 103.27505,1035.7513 104.35978,1035.7513 104.89501,1036.4935 105.43737,1037.2357 105.43737,1038.6629 V 1043.8511 Z"
           style="font-size:14.6153px;line-height:1;font-family:'Open Sans Condensed';-inkscape-font-specification:'Open Sans Condensed, ';fill:#19aeff;fill-opacity:1"
           id="path4386" />
        <path
           d="M 110.93238,1043.8511 V 1039.1125 Q 110.93238,1038.249 110.72543,1037.8066 110.51847,1037.3641 110.05461,1037.3641 109.44088,1037.3641 109.15543,1037.9778 108.86997,1038.5844 108.86997,1040.0331 V 1043.8511 H 106.97169 V 1035.9012 H 108.47747 L 108.70583,1036.9217 H 108.82715 Q 109.08406,1036.3722 109.5622,1036.0653 110.04034,1035.7513 110.68261,1035.7513 111.76734,1035.7513 112.30257,1036.4935 112.84493,1037.2357 112.84493,1038.6629 V 1043.8511 Z"
           style="font-size:14.6153px;line-height:1;font-family:'Open Sans Condensed';-inkscape-font-specification:'Open Sans Condensed, ';fill:#19aeff;fill-opacity:1"
           id="path4388" />
        <path
           d="M 117.3123,1043.9938 Q 115.8208,1043.9938 114.9573,1042.9376 114.10093,1041.8743 114.10093,1039.9332 114.10093,1037.9636 114.8788,1036.8574 115.65666,1035.7513 117.04825,1035.7513 118.34707,1035.7513 119.09639,1036.7004 119.84571,1037.6424 119.84571,1039.348 V 1040.3614 H 116.02775 Q 116.04916,1041.4247 116.46307,1041.9457 116.87698,1042.4595 117.60489,1042.4595 118.53262,1042.4595 119.50317,1041.8814 V 1043.4443 Q 118.58971,1043.9938 117.3123,1043.9938 Z M 117.03398,1037.2142 Q 116.62721,1037.2142 116.36316,1037.6496 116.09912,1038.0777 116.0563,1038.9841 H 117.98312 Q 117.96885,1038.1134 117.71907,1037.6638 117.4693,1037.2142 117.03398,1037.2142 Z"
           style="font-size:14.6153px;line-height:1;font-family:'Open Sans Condensed';-inkscape-font-specification:'Open Sans Condensed, ';fill:#19aeff;fill-opacity:1"
           id="path4390" />
        <path
           d="M 122.99999,1043.8511 H 121.10171 V 1032.7469 H 122.99999 Z"
           style="font-size:14.6153px;line-height:1;font-family:'Open Sans Condensed';-inkscape-font-specification:'Open Sans Condensed, ';fill:#19aeff;fill-opacity:1"
           id="path4392" />
      </g>
    </g>
    <path
       id="path987"
       style="fill:#19aeff;fill-opacity:1;stroke:none;stroke-width:0.999997"
       d="M 5,34.488 V 98.535 H 123 V 93.537 H 74 L 54,34.488 Z"
       transform="translate(0,924.36)"
       sodipodi:nodetypes="ccccccc" />
    <g
       id="g1017"
       transform="translate(0,14.492)">
      <g
         inkscape:export-ydpi="199.57146"
         inkscape:export-xdpi="199.57146"
         inkscape:export-filename="/home/urke/Documents/svg/urosevic_logo.png"
         transform="matrix(1.041,0,0,1.041,-15.006,13.11)"
         id="g4523"
         style="opacity:1;fill:#ffffff;fill-opacity:1;stroke-width:1.5">
        <path
           style="color:#000000;display:inline;overflow:visible;visibility:visible;fill:#ffffff;fill-opacity:1;fill-rule:nonzero;stroke:none;stroke-width:1.04587;marker:none;enable-background:accumulate"
           d="M 28.344,18.187 V 22.906 C 28.344,36.395 37.17,46.5 51.875,46.5 41.646,44.225 32.31,35.826 32.31,22.122 45.993,22.141 54.089,30.516 56.656,41.523 56.656,26.829 46.566,18.201 33.094,18.187 Z"
           transform="translate(0,885.83)"
           id="path4525"
           sodipodi:nodetypes="ccccccc"
           inkscape:connector-curvature="0" />
        <use
           x="0"
           y="0"
           xlink:href="#path4525"
           id="use4527"
           transform="rotate(180,47.556,918.17)"
           width="315.35"
           height="166.54"
           style="fill:#ffffff;fill-opacity:1;stroke-width:1.5" />
      </g>
      <g
         id="text3365"
         style="font-style:normal;font-weight:normal;font-size:14.8114px;line-height:125%;font-family:sans-serif;letter-spacing:0px;word-spacing:0px;fill:#ffffff;fill-opacity:1;stroke:none;stroke-width:1.75px;stroke-linecap:butt;stroke-linejoin:miter;stroke-opacity:1"
         transform="matrix(0.57143,0,0,0.57143,8.7854,420.7)">
        <path
           id="path3439"
           style="font-style:normal;font-variant:normal;font-weight:bold;font-stretch:condensed;font-size:14.8114px;line-height:125%;font-family:'Open Sans Condensed';-inkscape-font-specification:'Open Sans Condensed, Bold Condensed';text-align:start;writing-mode:lr-tb;text-anchor:start;fill:#ffffff;fill-opacity:1;stroke-width:1.75px"
           d="M 14.433,1002.2 14.195,1001.1 H 14.093 Q 13.826,1001.7 13.327,1002 12.835,1002.3 12.199,1002.3 11.114,1002.3 10.557,1001.6 10,1000.8 10,999.37 V 994.11 H 11.945 V 998.91 Q 11.945,999.79 12.155,1000.2 12.365,1000.7 12.835,1000.7 13.457,1000.7 13.739,1000.1 14.028,999.44 14.028,997.97 V 994.11 H 15.974 V 1002.2 Z"
           inkscape:connector-curvature="0" />
        <path
           id="path3441"
           style="font-style:normal;font-variant:normal;font-weight:bold;font-stretch:condensed;font-size:14.8114px;line-height:125%;font-family:'Open Sans Condensed';-inkscape-font-specification:'Open Sans Condensed, Bold Condensed';text-align:start;writing-mode:lr-tb;text-anchor:start;fill:#ffffff;fill-opacity:1;stroke-width:1.75px"
           d="M 21.036,993.96 Q 21.391,993.96 21.731,994.07 L 21.506,995.93 Q 21.304,995.86 20.978,995.86 20.277,995.86 19.901,996.42 19.525,996.97 19.525,998.02 V 1002.2 H 17.601 V 994.11 H 19.185 L 19.402,995.37 H 19.467 Q 19.785,994.61 20.161,994.28 20.537,993.96 21.036,993.96 Z"
           inkscape:connector-curvature="0" />
        <path
           id="path3443"
           style="font-style:normal;font-variant:normal;font-weight:bold;font-stretch:condensed;font-size:14.8114px;line-height:125%;font-family:'Open Sans Condensed';-inkscape-font-specification:'Open Sans Condensed, Bold Condensed';text-align:start;writing-mode:lr-tb;text-anchor:start;fill:#ffffff;fill-opacity:1;stroke-width:1.75px"
           d="M 28.572,998.12 Q 28.572,1000.1 27.733,1001.2 26.894,1002.3 25.433,1002.3 24.508,1002.3 23.799,1001.8 23.09,1001.3 22.707,1000.4 22.324,999.4 22.324,998.12 22.324,996.16 23.155,995.06 23.987,993.96 25.462,993.96 26.887,993.96 27.726,995.09 28.572,996.21 28.572,998.12 Z M 24.291,998.12 Q 24.291,999.38 24.566,1000 24.84,1000.7 25.448,1000.7 26.605,1000.7 26.605,998.12 26.605,996.86 26.323,996.24 26.048,995.61 25.448,995.61 24.84,995.61 24.566,996.24 24.291,996.86 24.291,998.12 Z"
           inkscape:connector-curvature="0" />
        <path
           id="path3445"
           style="font-style:normal;font-variant:normal;font-weight:bold;font-stretch:condensed;font-size:14.8114px;line-height:125%;font-family:'Open Sans Condensed';-inkscape-font-specification:'Open Sans Condensed, Bold Condensed';text-align:start;writing-mode:lr-tb;text-anchor:start;fill:#ffffff;fill-opacity:1;stroke-width:1.75px"
           d="M 34.249,999.81 Q 34.249,1001 33.555,1001.7 32.868,1002.3 31.523,1002.3 30.33,1002.3 29.549,1001.8 V 1000.2 Q 29.946,1000.4 30.474,1000.6 31.009,1000.8 31.414,1000.8 31.863,1000.8 32.094,1000.6 32.333,1000.4 32.333,1000 32.333,999.64 32.087,999.36 31.841,999.09 31.183,998.69 30.308,998.17 29.925,997.58 29.549,996.99 29.549,996.19 29.549,995.16 30.25,994.56 30.959,993.96 32.188,993.96 33.259,993.96 34.206,994.52 L 33.577,995.9 Q 32.803,995.48 32.217,995.48 31.848,995.48 31.66,995.68 31.479,995.87 31.479,996.16 31.479,996.48 31.704,996.74 31.935,996.99 32.557,997.36 33.309,997.82 33.613,998.14 33.917,998.46 34.083,998.86 34.249,999.27 34.249,999.81 Z"
           inkscape:connector-curvature="0" />
        <path
           id="path3447"
           style="font-style:normal;font-variant:normal;font-weight:bold;font-stretch:condensed;font-size:14.8114px;line-height:125%;font-family:'Open Sans Condensed';-inkscape-font-specification:'Open Sans Condensed, Bold Condensed';text-align:start;writing-mode:lr-tb;text-anchor:start;fill:#ffffff;fill-opacity:1;stroke-width:1.75px"
           d="M 38.451,1002.3 Q 36.94,1002.3 36.065,1001.2 35.197,1000.2 35.197,998.2 35.197,996.2 35.985,995.08 36.773,993.96 38.184,993.96 39.5,993.96 40.259,994.92 41.019,995.87 41.019,997.6 V 998.63 H 37.149 Q 37.171,999.71 37.591,1000.2 38.01,1000.8 38.748,1000.8 39.688,1000.8 40.672,1000.2 V 1001.8 Q 39.746,1002.3 38.451,1002.3 Z M 38.169,995.44 Q 37.757,995.44 37.489,995.88 37.222,996.32 37.178,997.23 H 39.131 Q 39.117,996.35 38.864,995.9 38.61,995.44 38.169,995.44 Z"
           inkscape:connector-curvature="0" />
        <path
           id="path3449"
           style="font-style:normal;font-variant:normal;font-weight:bold;font-stretch:condensed;font-size:14.8114px;line-height:125%;font-family:'Open Sans Condensed';-inkscape-font-specification:'Open Sans Condensed, Bold Condensed';text-align:start;writing-mode:lr-tb;text-anchor:start;fill:#ffffff;fill-opacity:1;stroke-width:1.75px"
           d="M 43.593,1002.2 41.489,994.11 H 43.485 L 44.512,998.77 Q 44.577,999.1 44.664,999.73 44.758,1000.4 44.779,1000.6 H 44.808 Q 44.816,1000.4 44.866,1000 44.924,999.6 44.982,999.26 45.04,998.92 46.096,994.11 H 48.092 L 45.98,1002.2 Z"
           inkscape:connector-curvature="0" />
        <path
           id="path3451"
           style="font-style:normal;font-variant:normal;font-weight:bold;font-stretch:condensed;font-size:14.8114px;line-height:125%;font-family:'Open Sans Condensed';-inkscape-font-specification:'Open Sans Condensed, Bold Condensed';text-align:start;writing-mode:lr-tb;text-anchor:start;fill:#ffffff;fill-opacity:1;stroke-width:1.75px"
           d="M 50.84,1002.2 H 48.916 V 994.11 H 50.84 Z M 48.837,992.01 Q 48.837,991.53 49.111,991.25 49.394,990.97 49.893,990.97 50.363,990.97 50.645,991.25 50.927,991.53 50.927,992.01 50.927,992.5 50.637,992.77 50.348,993.04 49.893,993.04 49.415,993.04 49.126,992.77 48.837,992.5 48.837,992.01 Z"
           inkscape:connector-curvature="0" />
        <path
           id="path3453"
           style="font-style:normal;font-variant:normal;font-weight:bold;font-stretch:condensed;font-size:14.8114px;line-height:125%;font-family:'Open Sans Condensed';-inkscape-font-specification:'Open Sans Condensed, Bold Condensed';text-align:start;writing-mode:lr-tb;text-anchor:start;fill:#ffffff;fill-opacity:1;stroke-width:1.75px"
           d="M 55.15,1002.3 Q 53.711,1002.3 52.959,1001.3 52.207,1000.2 52.207,998.18 52.207,996.06 52.916,995.01 53.632,993.96 55.121,993.96 55.57,993.96 56.062,994.09 56.553,994.22 56.944,994.46 L 56.394,995.96 Q 55.794,995.61 55.331,995.61 54.716,995.61 54.442,996.25 54.174,996.89 54.174,998.17 54.174,999.42 54.442,1000 54.709,1000.7 55.317,1000.7 56.04,1000.7 56.828,1000.1 V 1001.8 Q 56.069,1002.3 55.15,1002.3 Z"
           inkscape:connector-curvature="0" />
        <path
           id="path3455"
           style="font-style:normal;font-variant:normal;font-weight:bold;font-stretch:condensed;font-size:14.8114px;line-height:125%;font-family:'Open Sans Condensed';-inkscape-font-specification:'Open Sans Condensed, Bold Condensed';text-align:start;writing-mode:lr-tb;text-anchor:start;fill:#ffffff;fill-opacity:1;stroke-width:1.75px"
           d="M 57.971,1001.2 Q 57.971,1000.6 58.267,1000.3 58.571,999.99 59.164,999.99 59.757,999.99 60.061,1000.3 60.365,1000.6 60.365,1001.2 60.365,1001.7 60.046,1002.1 59.736,1002.4 59.164,1002.4 58.578,1002.4 58.275,1002.1 57.971,1001.7 57.971,1001.2 Z"
           inkscape:connector-curvature="0" />
        <path
           id="path3457"
           style="font-style:normal;font-variant:normal;font-weight:bold;font-stretch:condensed;font-size:14.8114px;line-height:125%;font-family:'Open Sans Condensed';-inkscape-font-specification:'Open Sans Condensed, Bold Condensed';text-align:start;writing-mode:lr-tb;text-anchor:start;fill:#ffffff;fill-opacity:1;stroke-width:1.75px"
           d="M 65.991,1002.2 V 997.36 Q 65.991,996.49 65.782,996.04 65.572,995.59 65.102,995.59 64.48,995.59 64.191,996.21 63.901,996.83 63.901,998.3 V 1002.2 H 61.977 V 994.11 H 63.503 L 63.735,995.14 H 63.858 Q 64.118,994.59 64.603,994.28 65.087,993.96 65.738,993.96 66.837,993.96 67.38,994.71 67.93,995.46 67.93,996.91 V 1002.2 Z"
           inkscape:connector-curvature="0" />
        <path
           id="path3459"
           style="font-style:normal;font-variant:normal;font-weight:bold;font-stretch:condensed;font-size:14.8114px;line-height:125%;font-family:'Open Sans Condensed';-inkscape-font-specification:'Open Sans Condensed, Bold Condensed';text-align:start;writing-mode:lr-tb;text-anchor:start;fill:#ffffff;fill-opacity:1;stroke-width:1.75px"
           d="M 72.471,1002.3 Q 70.96,1002.3 70.085,1001.2 69.217,1000.2 69.217,998.2 69.217,996.2 70.005,995.08 70.793,993.96 72.204,993.96 73.52,993.96 74.279,994.92 75.039,995.87 75.039,997.6 V 998.63 H 71.17 Q 71.191,999.71 71.611,1000.2 72.03,1000.8 72.768,1000.8 73.708,1000.8 74.692,1000.2 V 1001.8 Q 73.766,1002.3 72.471,1002.3 Z M 72.189,995.44 Q 71.777,995.44 71.509,995.88 71.242,996.32 71.198,997.23 H 73.151 Q 73.137,996.35 72.884,995.9 72.63,995.44 72.189,995.44 Z"
           inkscape:connector-curvature="0" />
        <path
           id="path3461"
           style="font-style:normal;font-variant:normal;font-weight:bold;font-stretch:condensed;font-size:14.8114px;line-height:125%;font-family:'Open Sans Condensed';-inkscape-font-specification:'Open Sans Condensed, Bold Condensed';text-align:start;writing-mode:lr-tb;text-anchor:start;fill:#ffffff;fill-opacity:1;stroke-width:1.75px"
           d="M 79.125,1000.7 Q 79.53,1000.7 80,1000.5 V 1002 Q 79.53,1002.3 78.59,1002.3 77.541,1002.3 77.035,1001.7 76.529,1001.1 76.529,999.81 V 995.64 H 75.747 V 994.78 L 76.753,994.08 77.245,992.37 H 78.474 V 994.11 H 79.935 V 995.64 H 78.474 V 999.87 Q 78.474,1000.7 79.125,1000.7 Z"
           inkscape:connector-curvature="0" />
      </g>
    </g>
    <path
       id="path989"
       style="fill:#0f4c81;fill-opacity:1;stroke:none;stroke-width:0.99999"
       d="M 5,29.479 V 34.475 H 54.002 L 74,93.537 H 123 V 29.479 Z"
       transform="translate(0,924.36)"
       sodipodi:nodetypes="ccccccc" />
    <g
       transform="matrix(0.09984,0,0,0.09984,73.562,968.74)"
       id="twux_logo"
       style="stroke-width:10.0165">
      <g
         id="twux_l_br"
         style="stroke-width:10.0165">
        <path
           transform="rotate(150,200,200)"
           d="M 26.77,100 A 200,200 0 0 1 251.77,6.81 L 232.34,79.25 A 125,125 0 0 0 91.74,137.5 Z"
           class="s"
           id="twux_l_br_s" />
        <path
           transform="rotate(150,200,200)"
           d="M 26.77,100 A 200,200 0 0 1 251.77,6.81 L 200,200 167.74,79.25 A 125,125 0 0 0 26.77,100 Z"
           class="f"
           id="twux_l_br_f"
           style="fill:#ffffff" />
      </g>
      <g
         id="twux_l_bl"
         style="stroke-width:10.0165">
        <path
           transform="rotate(-150,200,200)"
           d="M 148.23,6.81 A 200,200 0 0 1 373.93,100 L 308.24,137.5 A 125,125 0 0 0 167.64,79.25 Z"
           class="s"
           id="twux_l_bl_s" />
        <path
           transform="rotate(-150,200,200)"
           d="M 148.23,6.81 A 200,200 0 0 1 373.93,100 125,125 0 0 0 232.37,79.26 L 200,200 Z"
           class="f"
           id="twux_l_bl_f"
           style="fill:#ffffff" />
      </g>
      <path
         d="M 26.77,100 A 200,200 0 0 1 373.93,100 L 308.24,137.5 A 125,125 0 0 0 91.74,137.5 Z"
         class="s"
         id="twux_l_t_s" />
      <path
         d="M 26.77,100 A 200,200 0 0 1 373.93,100 200,200 0 0 0 232.37,79.26 L 200,200 167.74,79.25 A 125,125 0 0 0 26.77,100 Z"
         class="f"
         id="twux_l_t_f"
         style="fill:#ffffff" />
    </g>
    <g
       aria-label="www.TechWebUX.com"
       id="text993"
       style="font-style:normal;font-variant:normal;font-weight:300;font-stretch:normal;font-size:10.802px;line-height:1;font-family:Poppins;-inkscape-font-specification:'Poppins, Light';font-variant-ligatures:normal;font-variant-caps:normal;font-variant-numeric:normal;font-variant-east-asian:normal;text-align:center;letter-spacing:0px;word-spacing:0px;text-anchor:middle;fill:#0f4c81;fill-opacity:1;stroke:none;stroke-width:1px;stroke-linecap:butt;stroke-linejoin:miter;stroke-opacity:1">
      <path
         d="M 13.48,931.46 11.632,937.36 H 10.876 L 9.2452,932.41 7.6141,937.36 H 6.8471 L 5,931.46 H 5.7669 L 7.236,936.59 8.8887,931.46 H 9.6449 L 11.276,936.6 12.734,931.46 Z"
         style="stroke-width:1px"
         id="path1083" />
      <path
         d="M 22.283,931.46 20.436,937.36 H 19.68 L 18.049,932.41 16.418,937.36 H 15.651 L 13.804,931.46 H 14.571 L 16.04,936.59 17.692,931.46 H 18.448 L 20.08,936.6 21.538,931.46 Z"
         style="stroke-width:1px"
         id="path1085" />
      <path
         d="M 31.087,931.46 29.24,937.36 H 28.484 L 26.852,932.41 25.221,937.36 H 24.454 L 22.607,931.46 H 23.374 L 24.843,936.59 26.496,931.46 H 27.252 L 28.883,936.6 30.341,931.46 Z"
         style="stroke-width:1px"
         id="path1087" />
      <path
         d="M 32.243,937.41 Q 32.005,937.41 31.843,937.25 31.692,937.09 31.692,936.85 31.692,936.61 31.843,936.46 32.005,936.3 32.243,936.3 32.469,936.3 32.621,936.46 32.783,936.61 32.783,936.85 32.783,937.09 32.621,937.25 32.469,937.41 32.243,937.41 Z"
         style="stroke-width:1px"
         id="path1089" />
      <path
         d="M 38.497,929.81 V 930.44 H 36.401 V 937.36 H 35.645 V 930.44 H 33.539 V 929.81 Z"
         style="stroke-width:1px"
         id="path1091" />
      <path
         d="M 45.032,934.11 Q 45.032,934.5 45.011,934.7 H 40.117 Q 40.15,935.37 40.441,935.85 40.733,936.32 41.208,936.57 41.684,936.81 42.245,936.81 42.98,936.81 43.477,936.45 43.984,936.1 44.146,935.49 H 44.946 Q 44.73,936.36 44.017,936.91 43.315,937.45 42.245,937.45 41.413,937.45 40.755,937.08 40.096,936.7 39.718,936.02 39.35,935.33 39.35,934.41 39.35,933.49 39.718,932.8 40.085,932.11 40.744,931.74 41.403,931.38 42.245,931.38 43.088,931.38 43.714,931.74 44.352,932.11 44.686,932.74 45.032,933.35 45.032,934.11 Z M 44.265,934.09 Q 44.276,933.43 43.995,932.96 43.725,932.5 43.25,932.26 42.775,932.02 42.213,932.02 41.37,932.02 40.776,932.56 40.182,933.1 40.117,934.09 Z"
         style="stroke-width:1px"
         id="path1093" />
      <path
         d="M 46.069,934.41 Q 46.069,933.49 46.436,932.81 46.804,932.12 47.452,931.75 48.1,931.38 48.932,931.38 50.023,931.38 50.725,931.92 51.438,932.46 51.643,933.38 H 50.833 Q 50.682,932.75 50.174,932.39 49.677,932.02 48.932,932.02 48.338,932.02 47.862,932.29 47.387,932.56 47.106,933.1 46.836,933.63 46.836,934.41 46.836,935.19 47.106,935.73 47.387,936.27 47.862,936.54 48.338,936.81 48.932,936.81 49.677,936.81 50.174,936.45 50.682,936.09 50.833,935.44 H 51.643 Q 51.438,936.34 50.725,936.9 50.012,937.45 48.932,937.45 48.1,937.45 47.452,937.08 46.804,936.7 46.436,936.02 46.069,935.33 46.069,934.41 Z"
         style="stroke-width:1px"
         id="path1095" />
      <path
         d="M 55.845,931.35 Q 56.515,931.35 57.044,931.63 57.584,931.92 57.887,932.5 58.2,933.07 58.2,933.9 V 937.36 H 57.454 V 933.99 Q 57.454,933.03 56.968,932.52 56.493,932.01 55.661,932.01 54.808,932.01 54.3,932.55 53.793,933.09 53.793,934.14 V 937.36 H 53.036 V 929.37 H 53.793 V 932.47 Q 54.073,931.94 54.614,931.65 55.164,931.35 55.845,931.35 Z"
         style="stroke-width:1px"
         id="path1097" />
      <path
         d="M 69.596,929.85 67.371,937.36 H 65.977 L 64.4,931.68 62.726,937.36 61.343,937.37 59.215,929.85 H 60.522 L 62.078,935.97 63.763,929.85 H 65.145 L 66.712,935.93 68.278,929.85 Z"
         style="font-style:normal;font-variant:normal;font-weight:500;font-stretch:normal;font-family:Poppins;-inkscape-font-specification:'Poppins Medium';stroke-width:1px"
         id="path1099" />
      <path
         d="M 76.066,934.24 Q 76.066,934.57 76.023,934.84 H 71.475 Q 71.529,935.56 72.005,935.99 72.48,936.42 73.171,936.42 74.165,936.42 74.576,935.59 H 75.904 Q 75.634,936.41 74.921,936.94 74.219,937.46 73.171,937.46 72.318,937.46 71.637,937.08 70.968,936.69 70.579,936 70.201,935.3 70.201,934.38 70.201,933.46 70.568,932.77 70.946,932.07 71.616,931.69 72.296,931.31 73.171,931.31 74.014,931.31 74.673,931.68 75.332,932.05 75.699,932.72 76.066,933.37 76.066,934.24 Z M 74.781,933.85 Q 74.77,933.17 74.295,932.76 73.819,932.35 73.117,932.35 72.48,932.35 72.026,932.76 71.573,933.16 71.486,933.85 Z"
         style="font-style:normal;font-variant:normal;font-weight:500;font-stretch:normal;font-family:Poppins;-inkscape-font-specification:'Poppins Medium';stroke-width:1px"
         id="path1101" />
      <path
         d="M 78.507,932.29 Q 78.821,931.86 79.361,931.59 79.912,931.31 80.581,931.31 81.37,931.31 82.007,931.69 82.645,932.07 83.012,932.77 83.379,933.46 83.379,934.36 83.379,935.25 83.012,935.97 82.645,936.67 81.997,937.07 81.359,937.46 80.581,937.46 79.89,937.46 79.35,937.19 78.821,936.92 78.507,936.5 V 937.36 H 77.276 V 929.37 H 78.507 Z M 82.126,934.36 Q 82.126,933.74 81.867,933.3 81.618,932.84 81.197,932.62 80.787,932.38 80.311,932.38 79.847,932.38 79.426,932.62 79.015,932.86 78.756,933.31 78.507,933.76 78.507,934.38 78.507,934.99 78.756,935.46 79.015,935.91 79.426,936.15 79.847,936.39 80.311,936.39 80.787,936.39 81.197,936.15 81.618,935.9 81.867,935.44 82.126,934.97 82.126,934.36 Z"
         style="font-style:normal;font-variant:normal;font-weight:500;font-stretch:normal;font-family:Poppins;-inkscape-font-specification:'Poppins Medium';stroke-width:1px"
         id="path1103" />
      <path
         d="M 85.378,929.81 V 934.56 Q 85.378,935.69 85.907,936.23 86.447,936.77 87.376,936.77 88.305,936.77 88.823,936.24 89.353,935.7 89.353,934.56 V 929.81 H 90.109 V 934.55 Q 90.109,935.99 89.342,936.71 88.586,937.44 87.365,937.44 86.145,937.44 85.378,936.71 84.621,935.99 84.621,934.55 V 929.81 Z"
         style="stroke-width:1px"
         id="path1105" />
      <path
         d="M 94.516,933.59 96.806,937.36 H 95.964 L 94.041,934.21 92.215,937.36 H 91.373 L 93.652,933.56 91.373,929.81 H 92.215 L 94.127,932.95 95.974,929.81 H 96.817 Z"
         style="stroke-width:1px"
         id="path1107" />
      <path
         d="M 98.243,937.41 Q 98.005,937.41 97.843,937.25 97.692,937.09 97.692,936.85 97.692,936.61 97.843,936.46 98.005,936.3 98.243,936.3 98.47,936.3 98.621,936.46 98.783,936.61 98.783,936.85 98.783,937.09 98.621,937.25 98.47,937.41 98.243,937.41 Z"
         style="stroke-width:1px"
         id="path1109" />
      <path
         d="M 99.733,934.41 Q 99.733,933.49 100.1,932.81 100.47,932.12 101.12,931.75 101.76,931.38 102.6,931.38 103.69,931.38 104.39,931.92 105.1,932.46 105.31,933.38 H 104.5 Q 104.35,932.75 103.84,932.39 103.34,932.02 102.6,932.02 102,932.02 101.53,932.29 101.05,932.56 100.77,933.1 100.5,933.63 100.5,934.41 100.5,935.19 100.77,935.73 101.05,936.27 101.53,936.54 102,936.81 102.6,936.81 103.34,936.81 103.84,936.45 104.35,936.09 104.5,935.44 H 105.31 Q 105.1,936.34 104.39,936.9 103.68,937.45 102.6,937.45 101.76,937.45 101.12,937.08 100.47,936.7 100.1,936.02 99.733,935.33 99.733,934.41 Z"
         style="stroke-width:1px"
         id="path1111" />
      <path
         d="M 109.28,937.45 Q 108.45,937.45 107.78,937.08 107.12,936.7 106.73,936.02 106.36,935.33 106.36,934.41 106.36,933.49 106.74,932.81 107.13,932.12 107.8,931.75 108.47,931.38 109.3,931.38 110.14,931.38 110.81,931.75 111.49,932.12 111.86,932.81 112.25,933.49 112.25,934.41 112.25,935.32 111.86,936.01 111.48,936.7 110.79,937.08 110.11,937.45 109.28,937.45 Z M 109.28,936.79 Q 109.87,936.79 110.36,936.53 110.86,936.26 111.16,935.73 111.48,935.19 111.48,934.41 111.48,933.63 111.17,933.1 110.87,932.56 110.37,932.3 109.88,932.03 109.29,932.03 108.71,932.03 108.21,932.3 107.72,932.56 107.41,933.1 107.12,933.63 107.12,934.41 107.12,935.19 107.41,935.73 107.72,936.26 108.2,936.53 108.7,936.79 109.28,936.79 Z"
         style="stroke-width:1px"
         id="path1113" />
      <path
         d="M 120.66,931.35 Q 121.69,931.35 122.34,932.01 123,932.66 123,933.9 V 937.36 H 122.26 V 933.99 Q 122.26,933.03 121.79,932.52 121.33,932.01 120.53,932.01 119.7,932.01 119.2,932.56 118.7,933.11 118.7,934.16 V 937.36 H 117.96 V 933.99 Q 117.96,933.03 117.49,932.52 117.03,932.01 116.22,932.01 115.39,932.01 114.89,932.56 114.39,933.11 114.39,934.16 V 937.36 H 113.64 V 931.46 H 114.39 V 932.48 Q 114.67,931.93 115.19,931.65 115.71,931.35 116.35,931.35 117.11,931.35 117.69,931.72 118.27,932.09 118.53,932.8 118.77,932.1 119.34,931.73 119.92,931.35 120.66,931.35 Z"
         style="stroke-width:1px"
         id="path1115" />
    </g>
  </g>
  <style
     id="twux_style">
.f{fill:#0f4c81;stop-color:#000;stroke-width:0;}
.s{fill:#b7c9d9;stop-color:#000;stroke-width:0;}
</style>
</svg>
